<svg xmlns="http://www.w3.org/2000/svg">
  <symbol id="arrow" viewBox="0 0 24 24"><path d="M5 12h14M13 6l6 6-6 6" fill="none" stroke="currentColor" stroke-width="1.7" stroke-linecap="square" stroke-linejoin="miter"/></symbol>
  <symbol id="people" viewBox="0 0 48 48"><circle cx="18" cy="15" r="7" fill="none" stroke="currentColor" stroke-width="1.7"/><path d="M5 40c0-8 5-14 13-14s13 6 13 14M30 9c5 0 9 4 9 9s-4 9-9 9M34 29c6 1 9 5 9 11" fill="none" stroke="currentColor" stroke-width="1.7"/></symbol>
  <symbol id="star" viewBox="0 0 48 48"><path d="m24 5 5.7 11.5 12.7 1.9-9.2 8.9 2.2 12.6L24 34l-11.4 5.9 2.2-12.6-9.2-8.9 12.7-1.9L24 5Z" fill="none" stroke="currentColor" stroke-width="1.7" stroke-linejoin="miter"/></symbol>
  <symbol id="globe" viewBox="0 0 48 48"><circle cx="24" cy="24" r="19" fill="none" stroke="currentColor" stroke-width="1.7"/><path d="M5 24h38M24 5c6 5 9 11 9 19s-3 14-9 19c-6-5-9-11-9-19s3-14 9-19Z" fill="none" stroke="currentColor" stroke-width="1.7"/></symbol>
  <symbol id="script" viewBox="0 0 48 48"><path d="M8 18h32v23H8zM8 18l4-10h32l-4 10M13 8l4 10M23 8l4 10M33 8l4 10" fill="none" stroke="currentColor" stroke-width="1.7"/></symbol>
  <symbol id="screen" viewBox="0 0 48 48"><rect x="6" y="11" width="36" height="27" rx="2" fill="none" stroke="currentColor" stroke-width="1.7"/><path d="m20 19 11 6-11 6V19ZM17 5l7 6 7-6" fill="none" stroke="currentColor" stroke-width="1.7"/></symbol>
  <symbol id="megaphone" viewBox="0 0 48 48"><path d="M7 22v8h8l19 9V13L15 22H7ZM15 30l3 10h7l-3-7M39 18c2 2 3 4 3 7s-1 6-3 8" fill="none" stroke="currentColor" stroke-width="1.7"/></symbol>
  <symbol id="phone" viewBox="0 0 48 48"><path d="M13 7 7 11c1 15 15 29 30 30l4-6-10-7-4 5c-6-3-10-7-13-13l5-4-6-9Z" fill="none" stroke="currentColor" stroke-width="1.7"/></symbol>
  <symbol id="chat" viewBox="0 0 48 48"><path d="M7 8h34v25H20l-10 8v-8H7V8Z" fill="none" stroke="currentColor" stroke-width="1.7"/><path d="M15 18h18M15 24h12" stroke="currentColor" stroke-width="1.7"/></symbol>
  <symbol id="calendar" viewBox="0 0 48 48"><rect x="7" y="10" width="34" height="32" fill="none" stroke="currentColor" stroke-width="1.7"/><path d="M15 5v10M33 5v10M7 20h34" stroke="currentColor" stroke-width="1.7"/></symbol>
</svg>
